<?xml version="1.0" standalone="no"?><!DOCTYPE svg PUBLIC "-//W3C//DTD SVG 1.1//EN" "http://www.w3.org/Graphics/SVG/1.1/DTD/svg11.dtd" [<!ENTITY nbsp " ">]><svg data-noselect="" viewBox="168.99858581042 119.67985892713 400 329.75912593285" width="400" ref="svg_canvas" height="329.75912593285" preserveAspectRatio="none" version="1.1" xmlns="http://www.w3.org/2000/svg" style="background: #ffffff;">
    <def></def>
    <g id="shape_JUt2ihuY5k" ref="shape_JUt2ihuY5k" key="shape_JUt2ihuY5k" transform="translate(260.17971263565,199.67985892713) rotate(0,78.966693269108,84.879562966426) scale(1,1)" style="cursor:move;display:inline;opacity:1;" filter="">
            <g style="display:inline"><rect fill="rgba(0,0,0,0)" width="177.93338653822" height="189.75912593285" x="-10" y="-10"></rect><svg version="1.1" id="图层_1" xmlns="http://www.w3.org/2000/svg" xmlns:xlink="http://www.w3.org/1999/xlink" x="0px" y="0px" width="157.93338653822" height="169.75912593285" viewBox="7.799999237060547 1 184.29998779296875 198.10000610351562" style="enable-background:new 0 0 200 200;" xml:space="preserve" class="style-removed" preserveAspectRatio="none" data-parent="shape_JUt2ihuY5k">

<g>
	<path d="M65.8,48.4c4-2,5-3.7,7.7-6.6c3.9-4.1,4.8-9.8,4.8-9.8s-4.3,2-8.1,6.4C66.4,42.7,65.8,48.4,65.8,48.4z" fill="#55A292"></path>
	<path d="M52.9,93.5c-2,5.5,0,11.2,0,11.2s4.4-5,5.8-9.9c1.3-4.9,0.5-8.9,0.5-8.9S54.9,88.1,52.9,93.5z" fill="#55A292"></path>
	<path d="M185.9,42.9c-5.1-3.3-8.1-3.5-8.1-3.5s-0.2,3.3,5.3,7.4c5.7,4.2,9,3.4,9,3.4S191,46.2,185.9,42.9z" fill="#55A292"></path>
	<path d="M183.6,52.9l-1.3-1.8l0.1,0.1c-4.9-7.8-11-14.9-18.1-20.9c2.9,0.1,8.4,0.7,13.8,3.6c0,0-1.3-5.3-19.3-7.9
		C144.1,15.4,126,9,106.7,9c-1.1,0-2.3,0-3.4,0.1c4.8-3.4,6.8-8.1,6.8-8.1c-6.4,1.7-13.8,6.5-17.4,9.1
		c-42.3,6.7-74.6,43.3-74.6,87.5c0,3.5,0.2,6.9,0.6,10.3c-1.7-1.4-3.3-1.8-5.2-2.1c-1.2-0.2-5.7-0.4-5.7-0.4
		c3.1,0.4,9.7,9.3,13.1,14.4c9.1,35.6,39.9,62.5,77.4,66.1c-3.3,3-6.7,6.7-10.4,11.1l-1.7,2.1h11.2l0.3-0.8c0-0.1,2.2-5.8,4.9-12.1
		c1.3,0.1,2.7,0.1,4,0.1c8.5,0,16.7-1.2,24.5-3.5c6.1-1.5,19.1-5.8,30.4-14.2c3.7-2.8,9.2-8.6,14.2-14.2h-1.1h-1.9h-3.4
		c-2.1,2.4-4.3,4.6-6.2,6.3c-5.1,4.6-12,9.4-18.3,13.3c-1.7,0.7-3.4,1.4-5.1,2.1l0,0c-4.7,1.7-9.5,3-14.5,4l-1.2-4.1
		c9-3.2,9.4-9.4,9.6-13.7c0.2-3.3-0.3-8.3-0.7-11.8c0-0.4,0.1-0.6,0.2-0.7c0.1-0.1,0.3-0.3,0.7-0.3l7.8,0.1l-3.5-3.7
		c-0.8-2.3-2.3-4-4.4-4.9c-2.4-1-5.3-0.8-7.9,0.6c-4.1,2.1-5.2,6.1-5.9,8.7c-0.4,1.5-0.6,2.8-0.5,4c-3.4,2.5-7.3,8.1-11.3,14.1
		c-1.4,2-3.5,6.5-5.6,11.3c-6.7-2.4-14.9-5.8-20.5-10c-2.8-2.1-5.1-3.9-7.1-5.5c1.2-2.6,3-7.2,3.5-10.8c0.8-5.5-2-16.3-2-16.3
		s-4.2,6.8-5.2,13.4c-0.6,3.8-0.3,7.8,0.1,10.6c-3.5-3.4-5.8-6.7-8.7-11.8c-0.1-0.3-0.3-0.5-0.4-0.8l0.9,1.4c0,0-0.4-11.6-0.5-15
		c1.8-1.4,5.7-4.6,7.8-8.3c2.9-5,2.6-9.6,2.6-9.6s-7.2,6.9-10.7,13.8c-0.4-4.8-1.2-9.2-1.2-9.2s-1.5,18-0.8,23.6
		c-1.8-3.5-3.5-6.8-5.1-9.7c-0.1-11.5-3-30.8-3-30.8c-1.1,4.6-1.5,16.9-1.7,22.1c0-0.1-0.1-0.1-0.1-0.2c-3-5.1-5-12.5-6.7-15.8
		c-2.1-4.3-8.2-7.9-8.2-7.9s-1.1,5.9,2.6,12.4c3.8,6.5,5,8.1,6.9,10c3.7,3.5,3.8,3.5,8.4,13.6c1.4,3.1,2.7,5.7,3.9,8
		c-6.7-2.3-16.2-1-16.2-1s5.1,4,10.6,4c3.2,0,5.3-0.6,6.6-1.2c3.6,6.4,6.9,10.3,10.8,15c4.8,5.8,11.4,11.7,22.8,16.3
		c-30.9-6-55.7-28.1-65-56.8c0.4-23.4,7.7-34.4,15.9-45.6c2.8-3.8,6.5-7.9,10.2-11.6c2.7-0.6,6.8-1.4,11.2-1.6
		c7.5-0.2,18.1,3.2,18.1,3.2c-3.5-2.5-7.1-4.2-10.4-5.2C66.9,60.5,62,60.4,59,60.6c5.5-5.1,10-8.7,10-8.7c-5.9,1.3-15.5,5.2-28,20.8
		c0.6-9.7,4.4-20.2,4.4-20.2C40,59,37.2,72.9,36.2,79c-7,10.4-10.4,21.2-12.1,28.9c-0.4-3.2-0.6-6.5-0.6-9.9
		c0-46.1,38.5-83.5,85.9-83.5c7.9,0,15.3,1,22.2,2.8c5.3,3.4,14.2,11,18.2,25.7c0.5,1.7,0.9,3.2,1.3,4.7c-1.4,1.4-3.4,3.7-4.5,4.8
		c-1.6,1.8-5.7,8.9-9.9,10.4c0,0,8.4-0.3,12-5.6c1.7-2.4,2.8-4.4,3.5-5.8c3.6,12.9,3.7,12.4,3.7,12.4s-0.4-19.3-4.5-25.1
		c0,0,5.7,0.8,11.1,7.9c0,0-0.2-8.5-12.5-13.8l-7.1-8.5c0,0,11.9,2.6,20.2,10.3C171.5,42.6,183.6,52.9,183.6,52.9z M95.8,196.5h-4.2
		c2.5-3,4.9-5.6,7.3-7.8C97.5,192.2,96.3,195.1,95.8,196.5z M122.9,180.5c-4.4,0.7-8.9,1-13.4,1c-0.3,0-0.6,0-1,0
		c3.8-2.1,7.7-3.6,12-4.5c0.4-0.1,0.8-0.2,1.2-0.3L122.9,180.5z M122.3,155.5c1.4-0.7,2.8-0.7,3.4,0c0.8,0.8,0.6,2.6-0.4,4.8
		c-1,2.1-3.7,7-8,8.4c-1.9,0.6-3.9,0.5-5.9-0.4C114.5,163.6,119.1,157,122.3,155.5z M109.9,170.4c2.8,1.3,5.5,1.5,8.1,0.7
		c5.3-1.7,8.4-7.4,9.5-9.7c2.1-4.5,0.8-6.7-0.1-7.6c-1.3-1.3-3.2-1.6-5.3-0.9c0.1-0.7,0.2-1.4,0.4-2.2c0.6-2.2,1.4-5.3,4.6-6.9
		c1.9-1,4.1-1.2,5.8-0.5c1.4,0.6,2.5,1.8,3.1,3.6l0,0l-2,0c-1,0-1.9,0.4-2.6,1.1c-0.7,0.7-1,1.7-0.8,2.7c0.4,2.8,0.9,8.1,0.7,11.4
		c-0.3,4.7-0.6,10.1-11.3,12.4c-5.4,1.2-10.2,3-14.8,6c0,0-0.1,0-0.1,0C106.9,176.3,108.7,172.5,109.9,170.4z" fill="#55A292"></path>
</g>
</svg></g>
        </g><g id="shape_hhg1Oz6i32" ref="shape_hhg1Oz6i32" key="shape_hhg1Oz6i32" transform="translate(278.07745898519,100.08942189355) rotate(0,186.30943515339,178.72) scale(1,1)" style="cursor:move;display:inline;opacity:1;" filter="">
            <g style="display:inline"><svg xmlns="http://www.w3.org/2000/svg" version="1.1" xmlns:xlink="http://www.w3.org/1999/xlink" width="348.96000000000004" height="357.44" viewBox="0 0 348.96000000000004 357.44" preserveAspectRatio="none" data-parent="shape_hhg1Oz6i32"><rect fill="rgba(0,0,0,0)" width="150" height="59" x="49.74" y="149.22"></rect><g data-width="149.22" transform="translate(49.74, 0)"><path d="M42.50-37.74L42.84-37.74Q46.24-36.58 48.91-33.18L48.91-33.18Q47.46-30.26 44.74-30.26L44.74-30.26Q43.47-31.33 30.65-31.86L30.65-31.86L28.76-31.86Q28.08-31.77 28.08-31.23L28.08-31.23L28.42-30.26L26.47-24.72L26.47-24.38L27.15-24.38Q30.60-24.38 35.51-26.67L35.51-26.67Q41.92-23.66 41.92-20.16L41.92-20.16Q40.66-2.96 39.35-1.55L39.35-1.55Q37.50 1.36 33.90 1.36L33.90 1.36Q28.66-5.15 27.44-5.15L27.44-5.15Q27.10-5.15 26.47-5.49L26.47-5.49Q23.75-5.15 22.00-5.15L22.00-5.15L18.46-5.15Q15.54-5.15 15.54-1.89L15.54-1.89Q15.54-0.39 12.68 1.36L12.68 1.36L12.05 1.36Q9.81 1.36 9.47-13.31L9.47-13.31Q9.13-18.12 8.16-22.10L8.16-22.10L10.44-23.75L11.37-23.75L13.31-22.44Q19.82-22.44 20.40-24.72L20.40-24.72Q20.84-26.23 21.32-29.58L21.32-29.58L21.32-30.89L21.03-30.89Q16.22-30.89 5.93-28.27L5.93-28.27Q4.81-28.27 0.78-33.52L0.78-33.52Q0.87-34.15 1.41-34.15L1.41-34.15L7.53-34.15Q42.50-36.09 42.50-37.74L42.50-37.74ZM15.25-19.19L15.25-19.19L15.25-16.22Q15.25-15.79 16.22-15.25L16.22-15.25L16.52-15.25Q18.56-15.25 27.15-17.54L27.15-17.54Q28.32-17.54 30.65-14.62L30.65-14.62Q30.65-13.65 28.42-12.34L28.42-12.34L25.21-12.63L24.24-12.63Q20.16-12.63 15.88-12.00L15.88-12.00L15.88-8.74Q15.88-8.11 16.86-8.11L16.86-8.11Q22.83-8.74 28.42-10.05L28.42-10.05Q31.62-7.82 31.62-7.09L31.62-7.09Q31.62-6.80 30.36-5.15L30.36-5.15L30.36-4.18Q32.59-4.18 32.59-8.74L32.59-8.74Q32.93-18.51 32.93-20.16L32.93-20.16Q32.06-20.89 29.73-21.13L29.73-21.13Q24.38-20.79 15.25-19.19Z" transform="translate(0 196.22) " fill="rgb(20, 115, 122)" stroke="rgb(20, 115, 122)" stroke-width="0.083" data-glyph-w="49.74" data-glyph-h="48.57421875" data-glyph-ascender="42.745312500000004" data-glyph-descender="-5.82890625"></path><path d="M30.60-38.62L30.60-38.62Q32.98-37.84 36.19-34.83L36.19-34.83L37.60-35.17Q41.29-34.00 42.16-32.64L42.16-32.64L42.16-31.38Q42.16-30.84 40.80-30.12L40.80-30.12L40.41-30.12Q38.57-30.12 34.44-30.41L34.44-30.41Q34.10-28.22 34.10-27.88L34.10-27.88L35.51-27.88Q37.60-27.88 39.73-25.36L39.73-25.36Q39.01-20.74 39.01-20.30L39.01-20.30L39.01-16.52Q44.11-17.15 44.30-17.15L44.30-17.15Q48.04-17.15 49.55-13.70L49.55-13.70Q48.96-11.46 46.39-11.46L46.39-11.46L39.39-12.44L29.87-12.44L29.87-6.61L30.21-4.71Q28.61 1.94 25.31 1.94L25.31 1.94L24.97 1.94Q23.61 1.94 22.15-4.08L22.15-4.08L22.15-11.80L21.81-11.80Q5.97-9.91 3.89-9.91L3.89-9.91Q2.67-9.91 0-13.36L0-13.36L0-13.70L0.68-13.99L4.23-13.70Q8.94-13.70 12.68-14.33L12.68-14.33L12.68-21.91L11.27-23.80Q13.12-25.99 14.43-25.99L14.43-25.99Q15.69-25.36 17.24-25.36L17.24-25.36Q17.24-27.25 15.84-27.25L15.84-27.25Q14.52-27.25 9.13-25.70L9.13-25.70Q8.06-25.70 4.91-29.48L4.91-29.48Q4.91-30.12 5.97-30.12L5.97-30.12Q11.66-30.12 15.45-31.04L15.45-31.04L15.45-31.38Q15.45-32.79 13.36-34.20L13.36-34.20Q14.77-36.09 16.86-36.09L16.86-36.09L17.58-36.09Q19.33-36.09 22.15-33.27L22.15-33.27L22.15-32.64Q22.15-29.14 22.83-26.62L22.83-26.62L26.72-26.62Q28.12-27.15 28.12-28.85L28.12-28.85L28.12-29.78L26.38-29.78Q24.43-29.78 23.56-31.38L23.56-31.38Q23.56-32.40 29.19-33.56L29.19-33.56L29.19-34.20Q29.19-35.17 26.72-36.09L26.72-36.09L26.72-36.72Q26.76-37.16 30.60-38.62ZM20.06-23.46L20.06-23.46L20.06-22.20Q29.19-22.68 29.19-23.17L29.19-23.17Q30.31-22.54 31.28-22.54L31.28-22.54L31.62-23.17L31.62-23.46Q31.62-24.09 30.94-24.09L30.94-24.09L27.78-24.09Q23.02-24.09 20.06-23.46ZM20.06-19.67L20.06-19.67Q20.16-19.04 20.74-19.04L20.74-19.04L29.87-19.67Q30.50-19.38 31.28-19.38L31.28-19.38L31.28-20.64L28.12-20.64Q20.06-20.64 20.06-19.67ZM31.28-17.15L29.87-17.15L29.53-15.59L29.53-15.25L30.60-15.25Q31.28-15.25 31.28-15.88L31.28-15.88L31.28-17.15ZM20.06-16.22L20.06-16.22L20.06-14.96L22.15-14.96L22.15-16.86L20.74-16.86Q20.06-16.71 20.06-16.22Z" transform="translate(49.74 196.22) " fill="rgb(20, 115, 122)" stroke="rgb(20, 115, 122)" stroke-width="0.083" data-glyph-w="49.74" data-glyph-h="48.57421875" data-glyph-ascender="42.745312500000004" data-glyph-descender="-5.82890625"></path><path d="M30.99-38.86L30.99-38.86Q37.65-37.79 37.65-35.46L37.65-35.46Q37.50-34.88 36.62-33.66L36.62-33.66Q36.77-33.66 36.77-33.52L36.77-33.52Q40.17-33.95 42.36-34.68L42.36-34.68Q46.58-33.66 48.87-31.14L48.87-31.14L48.87-30.99Q48.87-30.70 47.41-29.82L47.41-29.82Q43.67-29.97 41.92-29.97L41.92-29.97L38.52-29.97Q38.52-29.19 41.05-27.01L41.05-27.01Q38.71-24.34 37.21-24.09L37.21-24.09L37.65-22.44Q37.65-20.55 34.68-19.62L34.68-19.62Q33.52-19.62 28.80-24.38L28.80-24.38Q28.80-25.55 31.91-25.55L31.91-25.55L33.95-25.40Q32.59-28.37 31.28-28.37L31.28-28.37L30.84-28.37Q29.92-28.37 23.46-25.26L23.46-25.26Q21.66-24.68 21.28-24.68L21.28-24.68Q20.98-24.82 20.64-24.82L20.64-24.82L20.64-25.11Q24.19-28.08 24.19-29.53L24.19-29.53L23.90-29.68L22.59-29.68Q21.13-29.68 18.17-29.53L18.17-29.53L18.17-28.80Q20.50-26.28 20.50-24.68L20.50-24.68Q19.72-23.02 18.75-23.02L18.75-23.02L18.75-22.88Q18.75-22.25 19.77-20.98L19.77-20.98Q21.03-20.98 23.61-22.59L23.61-22.59L24.34-22.44L24.97-22.44Q29.97-22.44 29.97-20.55L29.97-20.55Q29.97-18.26 25.11-17.73L25.11-17.73L22.44-17.29L22.44-16.86Q23.07-15.69 24.34-14.62L24.34-14.62Q24.77-14.62 38.23-19.62L38.23-19.62Q41.58-19.62 43.43-17.73L43.43-17.73L43.43-17.58Q43.43-15.79 33.08-13.02L33.08-13.02L27.88-11.22Q29.78-9.13 30.70-9.13L30.70-9.13Q30.94-9.13 38.67-13.75L38.67-13.75L38.81-13.75Q40.46-13.75 42.07-8.99L42.07-8.99L42.07-8.55Q42.07-7.77 37.65-6.22L37.65-6.22L37.65-5.93Q39.59-5.44 42.07-5.44L42.07-5.44Q42.50-5.54 45.61-9.33L45.61-9.33L45.76-9.33Q46.34-9.23 46.49-5.93L46.49-5.93L46.49-5.78Q48.43-2.91 48.87-0.87L48.87-0.87Q46.24 1.17 43.43 1.17L43.43 1.17L42.07 1.17Q35.36 1.17 28.51-2.67L28.51-2.67Q14.62 1.75 5.44 1.75L5.44 1.75Q5.44 1.94 4.57 1.94L4.57 1.94L4.57 1.60Q17.58-2.33 23.61-5.29L23.61-5.29L23.61-5.78L20.21-8.84Q12.39-6.80 6.95-5.00L6.95-5.00L6.65-5.00Q5.44-5.15 3.98-7.82L3.98-7.82L3.98-8.11Q4.81-9.03 13.75-11.07L13.75-11.07Q17.15-12.19 17.15-12.39L17.15-12.39L17.15-12.53Q15.40-15.06 15.06-15.06L15.06-15.06Q10.01-13.46 7.38-12.09L7.38-12.09Q5.15-12.09 3.40-15.50L3.40-15.50L12.53-18.31L12.53-18.46Q12.53-19.14 10.05-22.30L10.05-22.30L10.05-22.73Q10.05-23.27 15.35-24.09L15.35-24.09L15.50-24.09L15.50-24.38Q13.84-27.44 12.97-27.78L12.97-27.78Q3.40-22.30 1.46-22.30L1.46-22.30Q0.19-22.88 0-22.88L0-22.88L0-23.32Q7.53-28.32 10.35-36.04L10.35-36.04Q10.35-37.89 11.80-38.23L11.80-38.23L12.53-38.37Q18.12-37.06 19.19-35.46L19.19-35.46L19.19-35.17L17.88-33.22L17.88-32.93Q21.13-32.93 23.02-33.81L23.02-33.81Q25.70-32.64 26.28-32.64L26.28-32.64L26.72-32.64Q28.37-32.64 29.39-36.77L29.39-36.77Q29.00-36.77 28.80-37.94L28.80-37.94L28.80-38.23Q30.16-38.86 30.99-38.86Z" transform="translate(99.48 196.22) " fill="rgb(20, 115, 122)" stroke="rgb(20, 115, 122)" stroke-width="0.083" data-glyph-w="49.74" data-glyph-h="48.57421875" data-glyph-ascender="42.745312500000004" data-glyph-descender="-5.82890625"></path></g></svg></g>
        </g><g id="shape_rNYY278cp2" ref="shape_rNYY278cp2" key="shape_rNYY278cp2" transform="translate(314.96531550094,238.157166034175) rotate(0,113.902569688749,70.152255859375) scale(1,1)" style="cursor:move;display:inline;opacity:1;" filter="">
            <g style="display:inline"><svg xmlns="http://www.w3.org/2000/svg" version="1.1" xmlns:xlink="http://www.w3.org/1999/xlink" width="180.84" height="140.30451171875" viewBox="0 0 180.84 140.30451171875" preserveAspectRatio="none" data-parent="shape_rNYY278cp2"><rect fill="rgba(0,0,0,0)" width="103" height="23" x="19.46" y="58.652255859375"></rect><g data-width="102.725615234375" transform="translate(19.46, 0)"><path d="M5.40 0L5.40 0L1.43 0L1.43-13.92Q3.96-14.04 5.08-14.04L5.08-14.04Q7.15-14.04 8.28-13.16Q9.41-12.27 9.41-10.61L9.41-10.61Q9.41-9.64 8.68-8.85Q7.96-8.05 7.09-7.85L7.09-7.85Q8.74-7.45 9.50-6.53Q10.25-5.61 10.25-4.02L10.25-4.02Q10.25-2.19 8.91-1.09Q7.56 0 5.40 0ZM3.33-12.40L3.33-12.40L3.33-8.40Q3.92-8.34 4.81-8.34L4.81-8.34Q7.51-8.34 7.51-10.54L7.51-10.54Q7.51-12.47 5.03-12.47L5.03-12.47Q4.08-12.47 3.33-12.40ZM4.86-6.97L3.33-6.93L3.33-1.62Q4.30-1.52 4.83-1.52L4.83-1.52Q6.61-1.52 7.44-2.19Q8.26-2.86 8.26-4.32L8.26-4.32Q8.26-5.68 7.47-6.33Q6.69-6.97 4.86-6.97L4.86-6.97Z" transform="translate(0 76.652255859375) " fill="rgb(20, 115, 122)" stroke="rgb(20, 115, 122)" stroke-width="0.032" data-glyph-w="11.012763671875" data-glyph-h="22.595644531250002" data-glyph-ascender="18.272255859375" data-glyph-descender="-4.3233886718750005"></path><path d="M11.44 0L9.33 0L8.37-2.94L3.19-2.94L2.17 0L0.04 0L5.69-14.11L6.20-14.11L11.44 0ZM7.83-4.33L5.85-10.46L3.70-4.33L7.83-4.33Z" transform="translate(11.012763671875 76.652255859375) " fill="rgb(20, 115, 122)" stroke="rgb(20, 115, 122)" stroke-width="0.032" data-glyph-w="11.478359375" data-glyph-h="22.595644531250002" data-glyph-ascender="18.272255859375" data-glyph-descender="-4.3233886718750005"></path><path d="M3.66 0L1.76 0L1.76-13.92L3.66-13.92L3.66 0Z" transform="translate(22.491123046875 76.652255859375) " fill="rgb(20, 115, 122)" stroke="rgb(20, 115, 122)" stroke-width="0.032" data-glyph-w="5.41611328125" data-glyph-h="22.595644531250002" data-glyph-ascender="18.272255859375" data-glyph-descender="-4.3233886718750005"></path><path d="M10.31-13.41L10.31-13.41L9.67-11.78Q8.76-12.45 6.80-12.45L6.80-12.45Q4.97-12.45 3.86-10.87Q2.76-9.29 2.76-6.80L2.76-6.80Q2.76-4.43 3.89-2.95Q5.03-1.47 6.82-1.47L6.82-1.47Q8.78-1.47 9.83-2.86L9.83-2.86L10.88-1.41Q9.23 0.24 6.62 0.24L6.62 0.24Q3.90 0.24 2.33-1.73Q0.76-3.70 0.76-6.92L0.76-6.92Q0.76-10.03 2.43-12.10Q4.10-14.16 6.76-14.16L6.76-14.16Q9.03-14.16 10.31-13.41Z" transform="translate(27.907236328125002 76.652255859375) " fill="rgb(20, 115, 122)" stroke="rgb(20, 115, 122)" stroke-width="0.032" data-glyph-w="11.639892578125" data-glyph-h="22.595644531250002" data-glyph-ascender="18.272255859375" data-glyph-descender="-4.3233886718750005"></path><path d="M11.44 0L9.33 0L8.37-2.94L3.19-2.94L2.17 0L0.04 0L5.69-14.11L6.20-14.11L11.44 0ZM7.83-4.33L5.85-10.46L3.70-4.33L7.83-4.33Z" transform="translate(39.54712890625 76.652255859375) " fill="rgb(20, 115, 122)" stroke="rgb(20, 115, 122)" stroke-width="0.032" data-glyph-w="11.478359375" data-glyph-h="22.595644531250002" data-glyph-ascender="18.272255859375" data-glyph-descender="-4.3233886718750005"></path><path d="M0.76-7.08L0.76-7.08Q0.76-10.10 2.28-12.13Q3.79-14.17 6.37-14.17L6.37-14.17Q9.26-14.17 10.81-12.30Q12.35-10.42 12.35-7.08L12.35-7.08Q12.35-3.65 10.80-1.71Q9.25 0.24 6.37 0.24L6.37 0.24Q3.73 0.24 2.25-1.81Q0.76-3.87 0.76-7.08ZM2.76-7.08L2.76-7.08Q2.76-4.68 3.70-3.08Q4.65-1.47 6.37-1.47L6.37-1.47Q8.31-1.47 9.34-2.95Q10.36-4.42 10.36-7.08L10.36-7.08Q10.36-12.46 6.37-12.46L6.37-12.46Q4.60-12.46 3.68-11.01Q2.76-9.57 2.76-7.08Z" transform="translate(51.025488281250006 76.652255859375) " fill="rgb(20, 115, 122)" stroke="rgb(20, 115, 122)" stroke-width="0.032" data-glyph-w="13.112695312500001" data-glyph-h="22.595644531250002" data-glyph-ascender="18.272255859375" data-glyph-descender="-4.3233886718750005"></path><path d="M0.47-2.78L0.47-2.78L2.13-2.78Q2.36-1.52 3.64-1.52L3.64-1.52Q4.91-1.52 5.43-2.07Q5.95-2.61 5.95-5.12L5.95-5.12L5.95-13.92L7.85-13.92L7.85-5.20Q7.85-2.35 6.93-1.08Q6.01 0.19 3.65 0.19L3.65 0.19Q2.29 0.19 1.42-0.62Q0.55-1.43 0.47-2.78Z" transform="translate(64.13818359375 76.652255859375) " fill="rgb(20, 115, 122)" stroke="rgb(20, 115, 122)" stroke-width="0.032" data-glyph-w="9.27390625" data-glyph-h="22.595644531250002" data-glyph-ascender="18.272255859375" data-glyph-descender="-4.3233886718750005"></path><path d="M3.66 0L1.76 0L1.76-13.92L3.66-13.92L3.66 0Z" transform="translate(73.41208984375 76.652255859375) " fill="rgb(20, 115, 122)" stroke="rgb(20, 115, 122)" stroke-width="0.032" data-glyph-w="5.41611328125" data-glyph-h="22.595644531250002" data-glyph-ascender="18.272255859375" data-glyph-descender="-4.3233886718750005"></path><path d="M11.44 0L9.33 0L8.37-2.94L3.19-2.94L2.17 0L0.04 0L5.69-14.11L6.20-14.11L11.44 0ZM7.83-4.33L5.85-10.46L3.70-4.33L7.83-4.33Z" transform="translate(78.828203125 76.652255859375) " fill="rgb(20, 115, 122)" stroke="rgb(20, 115, 122)" stroke-width="0.032" data-glyph-w="11.478359375" data-glyph-h="22.595644531250002" data-glyph-ascender="18.272255859375" data-glyph-descender="-4.3233886718750005"></path><path d="M10.99 0.19L10.42 0.19L3.23-9.99L3.23 0L1.43 0L1.43-13.92L2.19-13.92L9.19-4.29L9.19-13.92L10.99-13.92L10.99 0.19Z" transform="translate(90.3065625 76.652255859375) " fill="rgb(20, 115, 122)" stroke="rgb(20, 115, 122)" stroke-width="0.032" data-glyph-w="12.419052734375" data-glyph-h="22.595644531250002" data-glyph-ascender="18.272255859375" data-glyph-descender="-4.3233886718750005"></path></g></svg></g>
        </g>
  </svg>